Coordinates
version=1
nRows=21
nColumns=12
inDegrees=yes

Units are S.I. units (second, meters, Newtons, ...)
Angles are in degrees

endheader
time	SC_y	SC_z	SC_x	AC_y	AC_z	AC_x	GH_y	GH_z	GH_yy	EL_x	PS_y
       0.0              -26.06          20.05          63.95          62.63          7.309          16.46         -161.3          30.15          110.1          17.73          113.1
  0.004657              -26.07          20.05          63.95          62.63          7.306          16.45         -161.3          30.15          110.1          17.74          113.1
  0.009314              -26.07          20.05          63.94          62.63          7.303          16.45         -161.2          30.14          110.0          17.76          113.1
   0.01397              -26.08          20.05          63.94          62.62            7.3          16.44         -161.2          30.13          110.0          17.77          113.1
   0.01863              -26.08          20.06          63.93          62.62          7.297          16.44         -161.2          30.13          110.0          17.79          113.1
   0.02328              -26.09          20.06          63.93          62.62          7.294          16.43         -161.1          30.12          109.9          17.81          113.1
   0.02794               -26.1          20.06          63.92          62.61           7.29          16.42         -161.1          30.11          109.9          17.82          113.1
    0.0326               -26.1          20.06          63.91          62.61          7.286          16.42         -161.0           30.1          109.8          17.84          113.1
   0.03725              -26.11          20.07          63.91           62.6          7.282          16.41         -161.0          30.09          109.8          17.86          113.1
   0.04191              -26.12          20.07           63.9           62.6          7.277           16.4         -160.9          30.08          109.7          17.89          113.1
   0.04657              -26.13          20.07          63.89          62.59          7.272          16.39         -160.9          30.07          109.6          17.91          113.1
   0.05123              -26.14          20.08          63.89          62.58          7.267          16.38         -160.8          30.06          109.6          17.93          113.1
   0.05588              -26.14          20.08          63.88          62.58          7.261          16.37         -160.7          30.05          109.5          17.96          113.1
   0.06054              -26.16          20.09          63.87          62.57          7.255          16.36         -160.7          30.04          109.4          17.99          113.1
    0.0652              -26.17          20.09          63.86          62.56          7.249          16.35         -160.6          30.02          109.3          18.02          113.1
   0.06985              -26.18           20.1          63.85          62.55          7.241          16.34         -160.5          30.01          109.2          18.06          113.1
   0.07451              -26.19           20.1          63.83          62.54          7.234          16.32         -160.4          29.99          109.1           18.1          113.1
   0.07917              -26.21          20.11          63.82          62.53          7.225          16.31         -160.3          29.97          109.0          18.14          113.1
   0.08382              -26.22          20.12          63.81          62.52          7.216          16.29         -160.2          29.95          108.9          18.18          113.1
   0.08848              -26.24          20.12          63.79          62.51          7.206          16.27         -160.1          29.93          108.8          18.23          113.1
   0.09314              -26.26          20.13          63.77           62.5          7.194          16.25         -159.9           29.9          108.6          18.29          113.1
